<svg xmlns="http://www.w3.org/2000/svg" width="19.043" height="11.902" viewBox="0 0 19.043 11.902"><defs><style>.a{fill:#8b8b8b;}</style></defs><g transform="translate(0 -96)"><path class="a" d="M9.521,96A10.664,10.664,0,0,0,0,101.951a10.593,10.593,0,0,0,19.043,0A10.665,10.665,0,0,0,9.521,96Zm4.695,3.156A9.055,9.055,0,0,1,17,101.951a9.055,9.055,0,0,1-2.779,2.8,8.725,8.725,0,0,1-9.389,0,9.056,9.056,0,0,1-2.779-2.8,9.054,9.054,0,0,1,2.779-2.795c.073-.046.146-.092.221-.136a4.761,4.761,0,1,0,8.948,0Q14.107,99.086,14.216,99.156Zm-4.695.9a1.785,1.785,0,1,1-1.785-1.785A1.785,1.785,0,0,1,9.521,100.054Z"/></g></svg>
