<svg id="Google" xmlns="http://www.w3.org/2000/svg" width="18.061" height="18.456" viewBox="0 0 18.061 18.456">
  <path id="Stroke-94" d="M7.993,30.179A9.082,9.082,0,0,0,9.3,32.143a9.284,9.284,0,0,0,9.461,2.843,8.558,8.558,0,0,0,3.547-1.966,8.4,8.4,0,0,0,1.966-2.772,10.184,10.184,0,0,0,.833-4.154,7.659,7.659,0,0,0-.21-1.679H16.287v3.567h4.955a4.152,4.152,0,0,1-1.888,2.756,5.709,5.709,0,0,1-3.067.808A5.469,5.469,0,0,1,11.1,27.806L7.993,30.179Z" transform="translate(-7.046 -16.865)" fill="#bfad71" fill-rule="evenodd"/>
  <path id="Stroke-95" d="M9.611,15.934a5.45,5.45,0,0,1-.263-1.453c0-.085-.012-.167-.012-.252s.008-.169.012-.254a5.441,5.441,0,0,1,5.45-5.2,5.347,5.347,0,0,1,3.4,1.217l2.688-2.684A9.214,9.214,0,0,0,5.563,13.975c0,.085-.006.167-.006.254s0,.167.006.252a9.212,9.212,0,0,0,.94,3.832l3.108-2.379Z" transform="translate(-5.557 -5)" fill="#bfad71" fill-rule="evenodd"/>
  <path id="Stroke-96" d="M12.716,9.039c-.91.665-1.254,2.383-1.614,3.476L7.994,10.139A9.232,9.232,0,0,1,22.376,7.308" transform="translate(-7.046 -5)" fill="#bfad71" fill-rule="evenodd"/>
  <path id="Stroke-97" d="M9.3,37.473a9.082,9.082,0,0,1-1.305-1.964L11.1,33.136a5.465,5.465,0,0,0,3.219,3.372" transform="translate(-7.046 -22.195)" fill="#bfad71" fill-rule="evenodd"/>
  <path id="Stroke-98" d="M29.319,41.482a5.707,5.707,0,0,0,3.067-.808l2.953,2.283a8.554,8.554,0,0,1-3.547,1.966,9.27,9.27,0,0,1-2.473.334" transform="translate(-20.079 -26.801)" fill="#bfad71" fill-rule="evenodd"/>
</svg>
