<svg xmlns="http://www.w3.org/2000/svg" width="88" height="76" viewBox="0 0 88 76"><defs><style>.a{fill-rule:evenodd;}</style></defs><g transform="translate(-6 -12)"><g transform="translate(0 -952.362)"><path class="a" d="M7.932,974.546a1.132,1.132,0,1,0,0,2.264h2.45a1.132,1.132,0,1,0,0-2.264Z"/><path class="a" d="M17.05,974.546a1.132,1.132,0,1,0,0,2.264H34.924a1.132,1.132,0,1,0,0-2.264H17.05Z"/><path class="a" d="M7.932,966.323a1.132,1.132,0,1,0,0,2.264h38.8a1.132,1.132,0,1,0,0-2.264H7.932Z"/><path class="a" d="M70.35,964.363a5.7,5.7,0,0,0-2.763.743Q38.252,981.471,8.96,997.931a5.871,5.871,0,0,0-2.232,7.923c6.1,10.4,11.952,21.1,17.748,31.552a5.889,5.889,0,0,0,7.935,2.229l58.628-32.861a5.811,5.811,0,0,0,2.232-7.888c-5.872-10.52-11.8-21.04-17.712-31.552a5.94,5.94,0,0,0-5.207-2.971Zm-.248,2.3L59.4,1004.51a10.018,10.018,0,0,1-12.328,6.9L9.1,1000.726a3.632,3.632,0,0,1,.992-.849q29.372-16.379,58.628-32.79A3.348,3.348,0,0,1,70.1,966.662Zm2.2.5a3.587,3.587,0,0,1,1.275,1.309l17.712,31.517a3.544,3.544,0,0,1-1.346,4.811q-29.318,16.383-58.628,32.861a3.653,3.653,0,0,1-4.889-1.38L8.712,1004.758a3.5,3.5,0,0,1-.425-1.875L46.474,1013.6a12.313,12.313,0,0,0,15.126-8.454Z"/></g></g></svg>