<svg xmlns="http://www.w3.org/2000/svg" width="24" height="24" viewBox="0 0 24 24"><defs><style>.a{fill:none;}.b{fill:#bfad71;}</style></defs><path class="a" d="M0,0H24V24H0Z"/><path class="b" d="M12,9A4,4,0,1,0,8,5,4,4,0,0,0,12,9Zm0-6a2,2,0,1,1-2,2A2.006,2.006,0,0,1,12,3Zm0,8.55A13.153,13.153,0,0,0,3,8V19a13.153,13.153,0,0,1,9,3.55A13.2,13.2,0,0,1,21,19V8A13.153,13.153,0,0,0,12,11.55Zm7,5.58a15.228,15.228,0,0,0-7,2.82,15.2,15.2,0,0,0-7-2.83V10.17A11.179,11.179,0,0,1,10.64,13L12,14.28l1.36-1.27A11.179,11.179,0,0,1,19,10.18Z"/></svg>