<svg id="Twitter" xmlns="http://www.w3.org/2000/svg" width="18.061" height="15.051" viewBox="0 0 18.061 15.051">
  <path id="Stroke-3" d="M21.814,8.64a3.783,3.783,0,0,1-1.629,2.1,7.246,7.246,0,0,0,2.128-.6,7.6,7.6,0,0,1-1.847,1.966c.006.162.009.327.009.493,0,5.022-3.727,10.81-10.543,10.81a10.317,10.317,0,0,1-5.68-1.706,7.6,7.6,0,0,0,.884.053,7.317,7.317,0,0,0,4.6-1.627A3.721,3.721,0,0,1,6.276,17.5a3.637,3.637,0,0,0,1.674-.066A3.779,3.779,0,0,1,4.976,13.7v-.045a3.632,3.632,0,0,0,1.68.472,3.82,3.82,0,0,1-1.648-3.161,3.884,3.884,0,0,1,.5-1.914,10.431,10.431,0,0,0,7.638,3.972,3.867,3.867,0,0,1-.1-.865,3.753,3.753,0,0,1,3.7-3.8,3.653,3.653,0,0,1,2.705,1.2,7.264,7.264,0,0,0,2.354-.922Z" transform="translate(-4.252 -8.363)" fill="#bfad71" fill-rule="evenodd"/>
</svg>
